# xmcd CD database file
#
# Track frame offsets:
#	150
#	18893
#	38633
#
# Disc length: 754 seconds
#
# Revision: 0
# Processed by: cddbd v1.5PL3 Copyright (c) Steve Scherf et al.
# Submitted via: CDex 1.51
#
DISCID=1502f003
DTITLE=島田奈美 - タンポポの草原
DYEAR=1988
DGENRE=Pop
TTITLE0=タンポポの草原
TTITLE1=消しゴムで消したジェラシー
TTITLE2=鏡の中の私
EXTD=YEAR: 1988
EXTT0=
EXTT1=
EXTT2=
PLAYORDER=
